<svg width="47" height="46" viewBox="0 0 47 46" fill="none" xmlns="http://www.w3.org/2000/svg">
<path d="M17.5092 46.0002C16.7966 46.0002 16.0963 45.7299 15.5557 45.1893L14.4007 44.0344C13.3195 42.9532 13.3195 41.2085 14.4007 40.1273L38.1625 16.3656C39.2437 15.2844 40.9883 15.2844 42.0695 16.3656L43.2245 17.5205C44.3057 18.6017 44.3057 20.3464 43.2245 21.4276L19.4627 45.1893C18.9221 45.7299 18.2218 46.0002 17.5092 46.0002ZM40.116 17.1519C39.8211 17.1519 39.514 17.2625 39.2928 17.4959L15.5311 41.2577C15.0765 41.7123 15.0765 42.4495 15.5311 42.9041L16.686 44.059C17.1406 44.5136 17.8778 44.5136 18.3324 44.059L42.0941 20.2972C42.5487 19.8426 42.5487 19.1054 42.0941 18.6508L40.9392 17.4959C40.7181 17.2748 40.4109 17.1519 40.116 17.1519Z" fill="#253289"/>
<path d="M36.9839 41.0977H35.3867V45.0293H36.9839V41.0977Z" fill="#253289"/>
<path d="M36.9839 33.2344H35.3867V37.166H36.9839V33.2344Z" fill="#253289"/>
<path d="M42.0801 38.333H38.1484V39.9302H42.0801V38.333Z" fill="#253289"/>
<path d="M34.2168 38.333H30.2852V39.9302H34.2168V38.333Z" fill="#253289"/>
<path d="M44.8472 30.2856H43.25V32.2515H44.8472V30.2856Z" fill="#253289"/>
<path d="M44.8472 26.354H43.25V28.3198H44.8472V26.354Z" fill="#253289"/>
<path d="M46.9971 28.5044H45.0312V30.1016H46.9971V28.5044Z" fill="#253289"/>
<path d="M43.0635 28.5044H41.0977V30.1016H43.0635V28.5044Z" fill="#253289"/>
<path d="M42.8785 10.6274H41.2812V12.5933H42.8785V10.6274Z" fill="#253289"/>
<path d="M42.8785 6.6958H41.2812V8.66161H42.8785V6.6958Z" fill="#253289"/>
<path d="M45.0283 8.84619H43.0625V10.4434H45.0283V8.84619Z" fill="#253289"/>
<path d="M41.0986 8.84619H39.1328V10.4434H41.0986V8.84619Z" fill="#253289"/>
<path d="M8.477 36.3797C8.26813 36.3797 8.07155 36.306 7.91183 36.1463L3.78362 32.0181C3.50103 31.7355 3.47646 31.2932 3.7099 30.9737L6.44975 27.3124C5.93373 26.3664 5.52828 25.3712 5.22112 24.3268L0.699753 23.6757C0.30659 23.6142 0.0117188 23.2825 0.0117188 22.8893V17.0533C0.0117188 16.6602 0.30659 16.3162 0.699753 16.267L5.22112 15.6158C5.52828 14.5838 5.94601 13.5763 6.44975 12.6303L3.7099 8.95665C3.47646 8.63721 3.50103 8.1949 3.78362 7.91231L7.91183 3.78411C8.19441 3.50152 8.63672 3.47695 8.95616 3.71039L12.6175 6.45024C13.5635 5.93422 14.5587 5.52877 15.6031 5.22161L16.2542 0.700241C16.3157 0.307079 16.6474 0.012207 17.0406 0.012207H22.8766C23.2697 0.012207 23.6137 0.307079 23.6629 0.700241L24.3141 5.22161C25.3461 5.52877 26.3536 5.9465 27.2996 6.45024L30.961 3.71039C31.2804 3.47695 31.7227 3.50152 32.0053 3.78411L36.1335 7.91231C36.4161 8.1949 36.4407 8.63721 36.2072 8.95665L33.4674 12.618C34.0694 13.7237 34.524 14.8909 34.8434 16.1196C34.954 16.5496 34.696 16.9796 34.266 17.0902C33.836 17.2008 33.4059 16.9428 33.2954 16.5127C32.9759 15.2595 32.4845 14.0678 31.821 12.962C31.6613 12.6794 31.6736 12.3354 31.8702 12.0774L34.524 8.5512L31.3787 5.4059L27.8525 8.03518C27.5945 8.23176 27.2505 8.24405 26.9679 8.08432C25.8621 7.43315 24.6704 6.94169 23.4172 6.60996C23.11 6.52396 22.8766 6.26595 22.8274 5.9465L22.1885 1.59714H17.7286L17.102 5.95879C17.0528 6.27823 16.8194 6.53625 16.5123 6.62225C15.259 6.9417 14.0673 7.43315 12.9615 8.09661C12.6789 8.25633 12.3349 8.24405 12.0769 8.04746L8.55071 5.4059L5.40542 8.5512L8.03469 12.0774C8.23127 12.3354 8.24356 12.6794 8.08383 12.962C7.43266 14.0678 6.94121 15.2595 6.60947 16.5127C6.52347 16.8199 6.26546 17.0533 5.94601 17.1025L1.59665 17.7414V22.2013L5.9583 22.8279C6.27774 22.8771 6.53576 23.1105 6.62176 23.4177C6.94121 24.6709 7.43266 25.8626 8.09612 26.9684C8.25584 27.251 8.24356 27.595 8.04698 27.853L5.40542 31.3792L8.55071 34.5245L12.0769 31.8952C12.3349 31.6986 12.6789 31.6864 12.9615 31.8461C14.0673 32.4973 15.259 32.9887 16.5123 33.3204C16.9423 33.431 17.2003 33.861 17.0897 34.2911C16.9791 34.7211 16.5491 34.9791 16.1191 34.8685C14.9027 34.5491 13.7233 34.0945 12.6175 33.4924L8.95616 36.2323C8.80873 36.3306 8.649 36.3797 8.477 36.3797Z" fill="#253289"/>
<path d="M19.9658 26.2436C16.5011 26.2436 13.6875 23.4301 13.6875 19.9653C13.6875 16.5006 16.5011 13.687 19.9658 13.687C23.4306 13.687 26.2441 16.5006 26.2441 19.9653C26.2441 23.4301 23.4306 26.2436 19.9658 26.2436ZM19.9658 15.2842C17.3857 15.2842 15.2847 17.3852 15.2847 19.9653C15.2847 22.5455 17.3857 24.6464 19.9658 24.6464C22.5459 24.6464 24.6469 22.5455 24.6469 19.9653C24.6469 17.3852 22.5459 15.2842 19.9658 15.2842Z" fill="#253289"/>
<path d="M30.8521 24.8091L29.7227 25.9385L33.6582 29.874L34.7876 28.7446L30.8521 24.8091Z" fill="#253289"/>
</svg>
