<svg width="40" height="37" viewBox="0 0 40 37" fill="none" xmlns="http://www.w3.org/2000/svg">
<path d="M14.4375 7.21875H21V8.53125H14.4375V7.21875Z" fill="#253289"/>
<path d="M7.875 11.1562H27.5625V12.4688H7.875V11.1562Z" fill="#253289"/>
<path d="M7.875 15.0938H27.5625V16.4062H7.875V15.0938Z" fill="#253289"/>
<path d="M19.6875 19.0312H27.5625V20.3438H19.6875V19.0312Z" fill="#253289"/>
<path d="M38.7188 18.375C38.5447 18.375 38.3778 18.4441 38.2547 18.5672C38.1316 18.6903 38.0625 18.8572 38.0625 19.0312C38.0625 19.5534 37.8551 20.0542 37.4859 20.4234C37.1167 20.7926 36.6159 21 36.0938 21C35.5716 21 35.0708 20.7926 34.7016 20.4234C34.3324 20.0542 34.125 19.5534 34.125 19.0312V3.28125C34.125 3.1072 34.0559 2.94028 33.9328 2.81721C33.8097 2.69414 33.6428 2.625 33.4688 2.625H27.1753L24.7472 0.190312C24.6221 0.069434 24.4552 0.00129563 24.2812 0H4.59375C4.4197 0 4.25278 0.0691406 4.12971 0.192211C4.00664 0.315282 3.9375 0.482202 3.9375 0.65625V26.25C2.89321 26.25 1.89169 26.6648 1.15327 27.4033C0.414843 28.1417 0 29.1432 0 30.1875C0 31.2318 0.414843 32.2333 1.15327 32.9717C1.89169 33.7102 2.89321 34.125 3.9375 34.125H6.5625V36.0938C6.5625 36.2678 6.63164 36.4347 6.75471 36.5578C6.87778 36.6809 7.0447 36.75 7.21875 36.75H36.0938C36.964 36.75 37.7986 36.4043 38.4139 35.7889C39.0293 35.1736 39.375 34.339 39.375 33.4688V19.0312C39.375 18.8572 39.3059 18.6903 39.1828 18.5672C39.0597 18.4441 38.8928 18.375 38.7188 18.375ZM24.9375 2.23781L29.2622 6.5625H25.5938C25.4197 6.5625 25.2528 6.49336 25.1297 6.37029C25.0066 6.24722 24.9375 6.0803 24.9375 5.90625V2.23781ZM5.25 1.3125H23.625V5.90625C23.6266 6.42792 23.8345 6.92777 24.2034 7.29665C24.5722 7.66552 25.0721 7.87344 25.5938 7.875H30.1875V30.1875C30.1875 30.8837 29.9109 31.5514 29.4187 32.0437C28.9264 32.5359 28.2587 32.8125 27.5625 32.8125H26.25C25.5538 32.8125 24.8861 32.5359 24.3938 32.0437C23.9016 31.5514 23.625 30.8837 23.625 30.1875C23.625 29.4913 23.9016 28.8236 24.3938 28.3313C24.8861 27.8391 25.5538 27.5625 26.25 27.5625C26.424 27.5625 26.591 27.4934 26.714 27.3703C26.8371 27.2472 26.9062 27.0803 26.9062 26.9062C26.9062 26.7322 26.8371 26.5653 26.714 26.4422C26.591 26.3191 26.424 26.25 26.25 26.25H5.25V1.3125ZM3.9375 32.8125C3.24131 32.8125 2.57363 32.5359 2.08134 32.0437C1.58906 31.5514 1.3125 30.8837 1.3125 30.1875C1.3125 29.4913 1.58906 28.8236 2.08134 28.3313C2.57363 27.8391 3.24131 27.5625 3.9375 27.5625H23.3166C22.6701 28.284 22.3126 29.2187 22.3126 30.1875C22.3126 31.1563 22.6701 32.091 23.3166 32.8125H3.9375ZM7.875 35.4375V34.125H27.5625C28.6068 34.125 29.6083 33.7102 30.3467 32.9717C31.0852 32.2333 31.5 31.2318 31.5 30.1875V7.21875C31.4987 7.04477 31.4306 6.87795 31.3097 6.75281L28.4878 3.9375H32.8125V33.4688C32.8145 34.1816 33.0521 34.8738 33.4884 35.4375H7.875ZM38.0625 33.4688C38.0625 33.9909 37.8551 34.4917 37.4859 34.8609C37.1167 35.2301 36.6159 35.4375 36.0938 35.4375C35.5716 35.4375 35.0708 35.2301 34.7016 34.8609C34.3324 34.4917 34.125 33.9909 34.125 33.4688V21.6562C34.693 22.0822 35.3838 22.3125 36.0938 22.3125C36.8037 22.3125 37.4945 22.0822 38.0625 21.6562V33.4688Z" fill="#253289"/>
</svg>
