<svg width="40" height="40" viewBox="0 0 40 40" fill="none" xmlns="http://www.w3.org/2000/svg">
<path d="M8.28125 14.5312C7.85 14.5312 7.5 14.8813 7.5 15.3125C7.5 15.7438 7.85 16.0938 8.28125 16.0938C8.71251 16.0938 9.06251 15.7438 9.06251 15.3125C9.06251 14.8813 8.71251 14.5312 8.28125 14.5312Z" fill="#253289"/>
<path d="M27.0313 16.0938H23.125V12.1875C23.125 11.7561 22.7752 11.4062 22.3438 11.4062H17.6563C17.2249 11.4062 16.875 11.7561 16.875 12.1875V16.0938H12.9688C12.5373 16.0938 12.1875 16.4436 12.1875 16.875V21.5625C12.1875 21.994 12.5373 22.3438 12.9688 22.3438H16.875V26.2501C16.875 26.6815 17.2249 27.0313 17.6563 27.0313H22.3438C22.7752 27.0313 23.125 26.6815 23.125 26.2501V22.3438H27.0313C27.4627 22.3438 27.8126 21.994 27.8126 21.5625V16.875C27.8126 16.4436 27.4627 16.0938 27.0313 16.0938ZM26.2501 20.7813H22.3438C21.9124 20.7813 21.5625 21.1311 21.5625 21.5625V25.4688H18.4375V21.5625C18.4375 21.1311 18.0877 20.7813 17.6563 20.7813H13.75V17.6563H17.6563C18.0877 17.6563 18.4375 17.3064 18.4375 16.875V12.9688H21.5625V16.875C21.5625 17.3064 21.9124 17.6563 22.3438 17.6563H26.2501V20.7813Z" fill="#253289"/>
<path d="M32.0607 2.40165C30.7958 3.2229 29.3268 3.65689 27.8126 3.65689C25.4968 3.65689 23.3139 2.6379 21.8237 0.861097C21.8236 0.861097 21.8236 0.861097 21.8236 0.861097C21.3646 0.313907 20.6999 0 20.0001 0C19.3002 0 18.6355 0.313907 18.1765 0.861019C16.6862 2.63782 14.5032 3.65681 12.1875 3.65681C10.6733 3.65681 9.20432 3.22275 7.93947 2.40157C6.3947 1.39899 4.375 2.57939 4.375 4.399V20.3343C4.375 23.8789 5.51204 27.3421 7.57642 30.0859C12.6835 36.8765 19.4083 39.8148 19.692 39.9366C19.7904 39.9788 19.8953 40 20.0001 40C20.1048 40 20.2098 39.9788 20.3081 39.9366C20.5919 39.8148 27.3167 36.8766 32.4236 30.0868C34.4882 27.3421 35.6251 23.8786 35.6251 20.3343V4.39908C35.6251 2.57931 33.605 1.39899 32.0607 2.40165ZM31.175 29.1475C26.9279 34.794 21.3574 37.7049 19.9996 38.358C18.6412 37.7065 13.0815 34.8064 8.8251 29.1467C6.96298 26.6719 5.93751 23.5424 5.93751 20.3344V4.39908C5.93751 3.80431 6.59384 3.39111 7.0886 3.7122C8.60744 4.69822 10.3706 5.2194 12.1875 5.2194C14.9664 5.2194 17.5858 3.99689 19.3736 1.86524C19.5373 1.67001 19.7597 1.56251 20.0001 1.56251C20.2404 1.56251 20.4628 1.67001 20.6265 1.86524C22.4144 3.99681 25.0337 5.2194 27.8126 5.2194C29.6295 5.2194 31.3926 4.69822 32.9115 3.7122C33.3982 3.39603 34.0626 3.79533 34.0626 4.39908V20.3343C34.0626 23.542 33.0371 26.6719 31.175 29.1475Z" fill="#253289"/>
<path d="M32.1696 6.25151C31.9622 6.10511 31.6968 6.06854 31.4576 6.15331C30.2822 6.57034 29.0558 6.78175 27.8126 6.78175C25.1272 6.78175 22.5374 5.79042 20.5202 3.99033C20.2239 3.72588 19.7762 3.72588 19.4799 3.99033C17.4628 5.79042 14.8729 6.78175 12.1875 6.78175C10.9443 6.78175 9.7179 6.57034 8.5425 6.15331C8.30313 6.06854 8.03789 6.10511 7.83055 6.25151C7.62336 6.39792 7.50008 6.63589 7.50008 6.88964V12.1873C7.50008 12.6187 7.84992 12.9686 8.28133 12.9686C8.71274 12.9686 9.06258 12.6187 9.06258 12.1873V7.94566C10.0827 8.21051 11.1298 8.34433 12.1876 8.34433C15.031 8.34433 17.7794 7.373 20.0001 5.59581C22.2208 7.373 24.9693 8.34433 27.8127 8.34433C28.8705 8.34433 29.9175 8.21051 30.9377 7.94566V20.3342C30.9377 22.8695 30.1351 25.3314 28.6772 27.2671C25.723 31.1965 22.1149 33.6295 20.0075 34.8274C17.8834 33.6138 14.2521 31.1623 11.3227 27.2683C9.86524 25.3315 9.06251 22.8689 9.06251 20.3342V18.4373C9.06251 18.0059 8.71266 17.656 8.28125 17.656C7.84985 17.656 7.5 18.0059 7.5 18.4373V20.3342C7.5 23.2057 8.41422 26.002 10.0742 28.2077C13.3594 32.5751 17.4711 35.2194 19.6297 36.407C19.7469 36.4715 19.8765 36.5037 20.0062 36.5037C20.1351 36.5037 20.2642 36.4719 20.3809 36.408C22.5228 35.2374 26.611 32.6152 29.9256 28.2065C31.5857 26.0021 32.5 23.2064 32.5 20.3342V6.88956C32.5 6.63581 32.3767 6.39792 32.1696 6.25151Z" fill="#253289"/>
</svg>
