<svg width="40" height="44" viewBox="0 0 40 44" fill="none" xmlns="http://www.w3.org/2000/svg">
<path d="M32.6071 23.7478C32.1731 23.7478 31.8235 23.3982 31.8235 22.9643V5.42455H7.35228V22.9643C7.35228 23.3982 7.00269 23.7478 6.56872 23.7478C6.13475 23.7478 5.78516 23.3982 5.78516 22.9643V4.64098C5.78516 4.20701 6.13475 3.85742 6.56872 3.85742H32.6071C33.041 3.85742 33.3906 4.20701 33.3906 4.64098V22.9643C33.3906 23.3982 33.041 23.7478 32.6071 23.7478Z" fill="#253289"/>
<path d="M30.6792 2.53151C30.2453 2.53151 29.8957 2.18192 29.8957 1.74795V1.56712H9.28197V1.74795C9.28197 2.18192 8.93238 2.53151 8.49841 2.53151C8.06443 2.53151 7.71484 2.18192 7.71484 1.74795V0.783562C7.71484 0.349589 8.06443 0 8.49841 0H30.6792C31.1132 0 31.4628 0.349589 31.4628 0.783562V1.74795C31.4628 2.18192 31.1132 2.53151 30.6792 2.53151Z" fill="#253289"/>
<path d="M26.8235 18.926H12.3578C11.9238 18.926 11.5742 18.5764 11.5742 18.1424C11.5742 17.7085 11.9238 17.3589 12.3578 17.3589H26.8235C27.2575 17.3589 27.6071 17.7085 27.6071 18.1424C27.6071 18.5764 27.2575 18.926 26.8235 18.926Z" fill="#253289"/>
<path d="M26.8235 15.0686H12.3578C11.9238 15.0686 11.5742 14.719 11.5742 14.285C11.5742 13.8511 11.9238 13.5015 12.3578 13.5015H26.8235C27.2575 13.5015 27.6071 13.8511 27.6071 14.285C27.6071 14.719 27.2575 15.0686 26.8235 15.0686Z" fill="#253289"/>
<path d="M22.0016 11.2112H12.3578C11.9238 11.2112 11.5742 10.8616 11.5742 10.4276C11.5742 9.99363 11.9238 9.64404 12.3578 9.64404H22.0016C22.4356 9.64404 22.7852 9.99363 22.7852 10.4276C22.7852 10.8616 22.4356 11.2112 22.0016 11.2112Z" fill="#253289"/>
<path d="M38.3945 43.9998H0.783562C0.349589 43.9998 0 43.6502 0 43.2162V25.8573C0 25.4233 0.349589 25.0737 0.783562 25.0737H12.3562C12.6214 25.0737 12.8625 25.2063 13.0071 25.4233L14.7068 27.9669H24.4953L26.3518 25.3992C26.4964 25.1943 26.7375 25.0737 26.9907 25.0737H38.4066C38.8405 25.0737 39.1901 25.4233 39.1901 25.8573V43.2162C39.1781 43.6502 38.8285 43.9998 38.3945 43.9998ZM1.56712 42.4326H37.611V26.6409H27.3885L25.5321 29.2085C25.3874 29.4135 25.1463 29.534 24.8932 29.534H14.2849C14.0197 29.534 13.7786 29.4014 13.634 29.1844L11.9342 26.6409H1.56712V42.4326Z" fill="#253289"/>
<path d="M0.783562 26.641C0.349589 26.641 0 26.2914 0 25.8574V24.8931C0 24.7243 0.060274 24.5555 0.156712 24.4229L3.04986 20.5654C3.31507 20.2158 3.79726 20.1435 4.14685 20.4087C4.49644 20.6739 4.56877 21.1561 4.30356 21.5057L1.56712 25.1583V25.8574C1.56712 26.2914 1.21753 26.641 0.783562 26.641Z" fill="#253289"/>
<path d="M38.395 26.641C37.961 26.641 37.6114 26.2914 37.6114 25.8574V25.1583L34.875 21.5057C34.6098 21.1561 34.6821 20.6739 35.0317 20.4087C35.3813 20.1435 35.8635 20.2158 36.1287 20.5654L39.0218 24.4229C39.1183 24.5555 39.1785 24.7243 39.1785 24.8931V25.8574C39.1785 26.2914 38.829 26.641 38.395 26.641Z" fill="#253289"/>
<path d="M23.9279 39.1781H15.2484C14.8144 39.1781 14.4648 38.8285 14.4648 38.3945V33.5726C14.4648 33.1387 14.8144 32.7891 15.2484 32.7891H23.9279C24.3618 32.7891 24.7114 33.1387 24.7114 33.5726V38.3945C24.7114 38.8285 24.3618 39.1781 23.9279 39.1781ZM16.032 37.611H23.1443V34.3562H16.032V37.611Z" fill="#253289"/>
</svg>
