<svg width="48" height="42" viewBox="0 0 48 42" fill="none" xmlns="http://www.w3.org/2000/svg">
<path d="M39.8 33.2C39.3 33.2 38.9 33 38.5 32.7L31.4 25.6H19.8C17.7 25.6 16 23.9 16 21.8V3.8C16 1.7 17.7 0 19.8 0H43.8C45.9 0 47.6 1.7 47.6 3.8V21.8C47.6 23.9 45.9 25.6 43.8 25.6H41.6V31.4C41.6 32.1 41.2 32.8 40.5 33.1C40.3 33.1 40 33.2 39.8 33.2ZM19.8 1.6C18.6 1.6 17.6 2.6 17.6 3.8V21.8C17.6 23 18.6 24 19.8 24H32.1L39.6 31.5C39.7 31.6 39.7 31.6 39.8 31.5C39.9 31.5 39.9 31.4 39.9 31.3V24H43.7C44.9 24 45.9 23 45.9 21.8V3.8C45.9 2.6 44.9 1.6 43.7 1.6H19.8Z" fill="#253289"/>
<path d="M8.8 41.2C8.6 41.2 8.3 41.2 8.1 41.1C7.4 40.8 7 40.1 7 39.4V33.6H3.8C1.7 33.6 0 31.9 0 29.8V11.8C0 9.7 1.7 8 3.8 8H14.8V9.6H3.8C2.6 9.6 1.6 10.6 1.6 11.8V29.8C1.6 31 2.6 32 3.8 32H8.6V39.4C8.6 39.5 8.6 39.6 8.7 39.6C8.8 39.6 8.9 39.6 8.9 39.6L16.4 32.1H24.7C25.9 32.1 26.9 31.1 26.9 29.9V26.9H28.5V29.9C28.5 32 26.8 33.7 24.7 33.7H17L9.9 40.8C9.7 41 9.3 41.2 8.8 41.2Z" fill="#253289"/>
<path d="M30.8992 18.9998L26.1992 14.3998L27.3992 13.1998L30.6992 16.5998L37.1992 8.2998L38.3992 9.2998L30.8992 18.9998Z" fill="#253289"/>
</svg>
