<svg width="47" height="46" viewBox="0 0 47 46" fill="none" xmlns="http://www.w3.org/2000/svg">
<path d="M23 46C10.3537 46 0 35.7203 0 23C0 10.2797 10.3537 0 23 0C35.6463 0 46 10.3537 46 23C46 35.6463 35.7203 46 23 46ZM23 1.25723C11.0193 1.25723 1.25723 11.0193 1.25723 23C1.25723 34.9807 11.0193 44.7428 23 44.7428C34.9807 44.7428 44.7428 34.9807 44.7428 23C44.7428 11.0193 34.9807 1.25723 23 1.25723Z" fill="#253289"/>
<path d="M23.0015 46C15.9758 46 10.2812 35.6463 10.2812 23C10.2812 10.3537 15.9758 0 23.0015 0C30.0272 0 35.7218 10.3537 35.7218 23C35.7218 35.6463 30.0272 46 23.0015 46ZM23.0015 1.25723C16.6414 1.25723 11.5385 11.0193 11.5385 23C11.5385 34.9807 16.7153 44.7428 23.0015 44.7428C29.3616 44.7428 34.4645 34.9807 34.4645 23C34.4645 11.0193 29.3616 1.25723 23.0015 1.25723Z" fill="#253289"/>
<path d="M39.6394 38.6044C39.4915 38.6044 39.3436 38.5305 39.1957 38.4565C35.424 35.0546 29.4336 33.0578 22.9996 33.0578C16.5655 33.0578 10.5751 35.1285 6.80342 38.4565C6.58156 38.6784 6.13783 38.6784 5.91596 38.4565C5.6941 38.2346 5.6941 37.7909 5.98992 37.569C9.98348 34.0192 16.3436 31.8745 22.9996 31.8745C29.6555 31.8745 36.0896 34.0192 40.0092 37.569C40.2311 37.7909 40.305 38.2346 40.0832 38.4565C39.9352 38.5305 39.7873 38.6044 39.6394 38.6044Z" fill="#253289"/>
<path d="M22.9988 14.1994C16.2689 14.1994 9.90878 12.0547 5.98917 8.50482C5.7673 8.28295 5.69335 7.83922 5.91521 7.61736C6.13708 7.39549 6.58081 7.32154 6.80267 7.5434C10.5744 10.9453 16.5647 12.9421 22.9988 12.9421C29.4329 12.9421 35.4972 10.9453 39.195 7.5434C39.4168 7.32154 39.8605 7.32154 40.0824 7.61736C40.3043 7.83922 40.3043 8.28295 40.0085 8.50482C36.0888 12.0547 29.7287 14.1994 22.9988 14.1994Z" fill="#253289"/>
<path d="M45.4084 23.6657H0.665595C0.29582 23.6657 0 23.3698 0 23.0001C0 22.6303 0.29582 22.3345 0.665595 22.3345H45.4084C45.7781 22.3345 46.074 22.6303 46.074 23.0001C46.074 23.3698 45.7042 23.6657 45.4084 23.6657Z" fill="#253289"/>
<path d="M23.0015 46C22.6318 46 22.3359 45.7042 22.3359 45.3344V0.665595C22.3359 0.29582 22.6318 0 23.0015 0C23.3713 0 23.6671 0.29582 23.6671 0.665595V45.4084C23.6671 45.7042 23.3713 46 23.0015 46Z" fill="#253289"/>
</svg>
